PathFileType	4	(X/Y/Z)	c:/Users/goper/Files/vsCode/490R/osim_files/C06/C06_Static_01.trc
DataRate	CameraRate	NumFrames	NumMarkers	Units                	OrigDataRate	OrigDataStartFrame	OrigNumFrames
250.00	250.00	8	36	mm	250.0	643	1714
                Frame#	Time	LPSIS			LASIS			LTH1			LTH2			LTH3			LTH4			LLFE			LMFE			LSH1			LSH2			LSH3			LSH4			LLMAL			LMMAL			LCAL			LMTP5			LTOE			LMTP1			RPSIS			RASIS			RTH1			RTH2			RTH3			RTH4			RLFE			RMFE			RSH1			RSH2			RSH3			RSH4			RLMAL			RMMAL			RCAL			RMTP1			RTOE			RMTP5		
		X1	Y1	Z1	X2	Y2	Z2	X3	Y3	Z3	X4	Y4	Z4	X5	Y5	Z5	X6	Y6	Z6	X7	Y7	Z7	X8	Y8	Z8	X9	Y9	Z9	X10	Y10	Z10	X11	Y11	Z11	X12	Y12	Z12	X13	Y13	Z13	X14	Y14	Z14	X15	Y15	Z15	X16	Y16	Z16	X17	Y17	Z17	X18	Y18	Z18	X19	Y19	Z19	X20	Y20	Z20	X21	Y21	Z21	X22	Y22	Z22	X23	Y23	Z23	X24	Y24	Z24	X25	Y25	Z25	X26	Y26	Z26	X27	Y27	Z27	X28	Y28	Z28	X29	Y29	Z29	X30	Y30	Z30	X31	Y31	Z31	X32	Y32	Z32	X33	Y33	Z33	X34	Y34	Z34	X35	Y35	Z35	X36	Y36	Z36

643	2.56800	-393.25919	1014.29529	484.78421	-224.99187	970.91058	371.11121	-324.76657	801.63037	292.83432	-316.52356	739.95123	282.66269	-250.38513	802.60803	304.65552	-251.34738	742.28638	293.36325	-326.29190	481.59595	295.89355	-334.07755	447.84204	406.85330	-399.84512	377.67850	264.10168	-392.26096	335.14563	259.68564	-335.21234	383.24036	262.05954	-338.26315	339.41116	257.62442	-358.28485	92.81666	269.58746	-346.47742	98.20683	347.81921	-421.94022	66.59293	312.64203	-247.53548	30.67471	238.10056	-195.70834	55.81527	306.00888	-220.80238	36.05836	351.99393	-389.68613	1012.31714	557.45844	-199.92519	969.50208	611.91412	-291.18839	791.51465	707.92883	-283.90982	728.84119	708.88135	-219.34383	792.64685	685.75464	-222.38734	730.01575	691.14667	-304.60107	462.90649	688.51221	-299.45465	463.14624	578.63995	-363.64359	393.07260	716.72229	-360.18118	345.69827	722.80914	-303.69135	386.57480	709.44592	-309.72784	340.70978	715.64044	-336.41321	91.94846	697.70013	-317.03583	105.90267	619.15784	-400.16382	62.41833	656.56348	-198.00310	44.84592	622.43903	-175.87209	53.26953	661.29010	-219.27377	29.14989	728.65289
644	2.57200	-393.30173	1014.31879	484.76501	-224.93599	970.86407	371.12454	-324.74588	801.62030	292.80981	-316.51428	739.94714	282.64310	-250.36285	802.61310	304.66855	-251.37273	742.28516	293.35895	-326.28781	481.59543	295.87378	-334.09421	447.86090	406.84546	-399.84641	377.66595	264.10162	-392.22888	335.12253	259.67444	-335.21606	383.23981	262.04245	-338.31894	339.38995	257.60626	-358.26120	92.80773	269.58871	-346.76645	98.15855	347.83130	-422.01276	66.65636	312.61606	-247.55318	30.67721	238.09756	-195.61905	55.69991	305.99689	-220.95575	36.00020	352.03738	-389.67636	1012.31567	557.46686	-200.16243	969.36731	611.99963	-291.42111	791.46356	707.97235	-284.62183	728.56964	708.93152	-219.26146	792.61688	685.70428	-222.36172	729.94080	691.14716	-304.71405	462.85535	688.55341	-299.48059	463.09808	578.64746	-363.71494	393.05969	716.72247	-360.50763	345.66171	722.76044	-303.77841	386.56088	709.45856	-309.74738	340.70663	715.64801	-336.70844	91.79471	697.75250	-317.04004	105.90900	619.14081	-400.46292	62.54882	656.62042	-198.06982	44.82915	622.43488	-176.11212	53.19733	661.35608	-219.48538	29.11814	728.68457
645	2.57600	-393.31259	1014.29919	484.76810	-224.93369	970.85205	371.11069	-324.73337	801.60791	292.79840	-316.53168	739.93567	282.63306	-250.39720	802.59314	304.63684	-251.36729	742.28162	293.33890	-326.30780	481.57346	295.86371	-334.06857	447.85349	406.85040	-399.82312	377.66071	264.08206	-392.19592	335.14102	259.61313	-335.22400	383.21780	262.04211	-338.26038	339.37415	257.57693	-358.28098	92.78962	269.58173	-346.75372	98.15847	347.82617	-422.00583	66.65113	312.62750	-247.55621	30.66422	238.07401	-195.71248	55.82710	305.99271	-220.93309	36.00280	352.04074	-389.67575	1012.28528	557.45581	-200.15063	969.35388	611.97565	-291.37921	791.46320	707.96289	-284.58096	728.58496	708.92340	-219.20662	792.61932	685.70459	-222.33270	729.94714	691.14301	-304.70105	462.83728	688.53210	-299.47208	463.09070	578.63953	-363.69608	393.03952	716.73364	-360.50156	345.66623	722.77368	-303.74194	386.54224	709.44531	-309.72763	340.69348	715.64001	-336.69064	91.78571	697.75629	-317.27689	105.64926	619.17609	-400.46542	62.54830	656.61975	-197.85365	45.08206	622.14233	-176.11259	53.18635	661.36157	-219.46446	29.10977	728.67249
646	2.58000	-393.27725	1014.29449	484.77753	-224.95169	970.82874	371.10385	-324.76517	801.59338	292.77814	-316.56094	739.92615	282.62543	-250.39337	802.59644	304.63144	-251.40356	742.25970	293.32806	-326.31931	481.55762	295.85403	-334.03549	447.87610	406.84607	-399.84454	377.66595	264.07230	-392.20166	335.12943	259.60962	-335.24677	383.20685	262.03238	-338.26724	339.33609	257.56616	-358.26199	92.79501	269.56543	-346.73352	98.14575	347.83813	-421.97214	66.60446	312.64182	-247.55115	30.63561	238.07278	-195.61349	55.67828	305.96341	-220.93025	35.98560	352.05179	-389.68124	1012.26678	557.46368	-200.17584	969.32104	611.98541	-291.35654	791.43701	707.97388	-284.54013	728.53870	708.93079	-219.22418	792.58490	685.70544	-222.33563	729.92322	691.13336	-304.69589	462.81842	688.55164	-299.45200	463.08182	578.61334	-363.68045	393.00943	716.72827	-360.48734	345.64581	722.77118	-303.74548	386.51889	709.44916	-309.72961	340.67773	715.62994	-336.66959	91.75269	697.77832	-317.26715	105.63509	619.16931	-400.43478	62.52103	656.63678	-197.86876	45.05269	622.15601	-176.10608	53.18068	661.35895	-219.47656	29.09062	728.69092
647	2.58400	-393.29565	1014.25543	484.77872	-224.94608	970.81537	371.09839	-324.78528	801.61218	292.78763	-316.54477	739.92603	282.62036	-250.42615	802.57782	304.60526	-251.39977	742.25555	293.30975	-326.31219	481.55954	295.84256	-334.01971	447.82727	406.85556	-399.84421	377.65308	264.07074	-392.21201	335.14151	259.61200	-335.23630	383.19617	262.02402	-338.28125	339.32013	257.56100	-358.26755	92.80965	269.56485	-346.74100	98.08331	347.83865	-421.96350	66.57416	312.64697	-247.55200	30.63829	238.06596	-195.65207	55.65126	305.97684	-220.93355	35.95866	352.06424	-389.67685	1012.24231	557.45160	-200.17661	969.30090	611.97986	-291.31445	791.42084	707.97095	-284.52771	728.51166	708.91156	-219.19951	792.58051	685.71436	-222.30568	729.90094	691.14862	-304.67285	462.77927	688.55560	-299.45309	463.09726	578.60016	-363.66415	392.95300	716.71783	-360.44565	345.59171	722.77557	-303.70041	386.49283	709.44385	-309.70218	340.63696	715.62665	-336.65524	91.72300	697.76874	-317.27039	105.63242	619.15814	-400.42630	62.46601	656.66595	-197.85454	45.03707	622.16931	-176.10622	53.16267	661.36627	-219.46408	29.05178	728.69592
648	2.58800	-393.22964	1014.20276	484.78012	-224.95529	970.82007	371.08710	-324.81204	801.59656	292.78116	-316.57855	739.92200	282.61810	-250.42068	802.58002	304.60309	-251.41805	742.25317	293.31494	-326.31439	481.55225	295.83517	-334.01068	447.81351	406.85202	-399.88022	377.67331	264.07300	-392.22882	335.18253	259.58948	-335.23679	383.21808	261.99933	-338.32309	339.34354	257.55844	-358.27219	92.81431	269.55911	-346.71588	98.05382	347.84351	-421.94699	66.52177	312.66660	-247.55489	30.63070	238.06296	-195.63089	55.64391	305.96979	-220.94183	35.95638	352.07913	-389.63922	1012.19678	557.44684	-200.17407	969.29401	611.99133	-291.31860	791.37677	707.97522	-284.52621	728.46448	708.92310	-219.20667	792.54962	685.73438	-222.29684	729.88977	691.13245	-304.67145	462.76959	688.56219	-299.44553	463.10272	578.58734	-363.65558	392.93842	716.69830	-360.45804	345.54056	722.75244	-303.72208	386.47946	709.45398	-309.72586	340.62100	715.65765	-336.64020	91.69323	697.78229	-317.27350	105.61792	619.15558	-400.41501	62.44609	656.69299	-198.06737	44.77478	622.44543	-176.09444	53.17197	661.36566	-219.47603	29.04855	728.69965
649	2.59200	-393.21057	1014.17737	484.78888	-225.04915	970.89667	371.06470	-324.82635	801.61188	292.77609	-316.59128	739.93152	282.62238	-250.44809	802.57202	304.60797	-251.42955	742.25043	293.32834	-326.33405	481.56137	295.82980	-334.00262	447.78860	406.88031	-399.87381	377.67282	264.06808	-392.25998	335.20441	259.62589	-335.23959	383.20456	262.01254	-338.31631	339.34235	257.57397	-358.27319	92.83311	269.57404	-346.73343	98.03967	347.85126	-421.93115	66.53161	312.67563	-247.52908	30.63683	238.05821	-195.87198	55.43930	306.13211	-220.94753	35.95526	352.08826	-389.62299	1012.17145	557.45526	-200.17363	969.29126	611.99530	-291.29114	791.38550	707.97778	-284.52371	728.43158	708.91907	-219.16966	792.57190	685.72485	-222.29047	729.89575	691.15692	-304.65585	462.76733	688.57800	-299.43015	463.11298	578.56952	-363.65292	392.90906	716.71075	-360.42755	345.52655	722.74628	-303.72064	386.46899	709.46143	-309.72049	340.60635	715.65845	-336.63821	91.67818	697.78406	-317.25677	105.63046	619.16412	-400.43121	62.43600	656.69012	-198.06598	44.77994	622.43237	-176.11464	53.15921	661.37939	-219.48166	29.04093	728.70898
650	2.59600	-393.22876	1014.15039	484.77451	-225.07135	970.92242	371.06830	-324.83426	801.63519	292.79272	-316.62247	739.96014	282.61896	-250.44876	802.60461	304.60004	-251.43640	742.27820	293.30371	-326.32889	481.57904	295.82550	-334.03125	447.78845	406.86224	-399.89835	377.68689	264.07388	-392.86957	334.66699	259.92813	-335.22641	383.23898	262.00952	-338.36337	339.36789	257.56161	-358.26938	92.84711	269.56558	-346.75128	98.04725	347.85544	-421.92374	66.56869	312.68179	-247.54710	30.66961	238.06918	-195.90721	55.45700	306.14731	-220.93576	35.98980	352.09451	-389.61255	1012.14917	557.45404	-200.17664	969.32092	611.99713	-291.30194	791.37549	707.98340	-284.50912	728.45276	708.92749	-219.20822	792.56366	685.75098	-222.31813	729.89624	691.15845	-304.68753	462.79428	688.59338	-299.40533	463.13870	578.57684	-363.63992	392.90533	716.70508	-360.43488	345.54269	722.75555	-303.72275	386.49002	709.48291	-309.74545	340.61084	715.68262	-336.64459	91.69084	697.78937	-317.25964	105.65125	619.15656	-400.40509	62.43288	656.70020	-197.86060	45.06754	622.16943	-176.10228	53.20337	661.38232	-219.47853	29.07512	728.71210
